<svg xmlns="http://www.w3.org/2000/svg" fill="none" viewBox="0 0 256 256">
    <path d="M111.792 221.072C100.187 221.072 90.1173 218.171 81.584 212.368C73.2213 206.395 66.736 198.117 62.128 187.536C57.6907 176.784 55.472 164.069 55.472 149.392C55.472 134.715 57.776 122.085 62.384 111.504C66.992 100.752 73.4773 92.4747 81.84 86.672C90.3733 80.6987 100.357 77.712 111.792 77.712C121.52 77.712 129.883 79.76 136.88 83.856C144.048 87.7813 149.424 93.2427 153.008 100.24V36.24H191.408V218H154.8L154.032 197.776C150.277 205.115 144.645 210.832 137.136 214.928C129.797 219.024 121.349 221.072 111.792 221.072ZM124.336 191.632C130.48 191.632 135.685 190.011 139.952 186.768C144.219 183.525 147.461 178.832 149.68 172.688C151.899 166.373 153.008 158.608 153.008 149.392C153.008 140.005 151.899 132.24 149.68 126.096C147.461 119.781 144.219 115.088 139.952 112.016C135.685 108.773 130.48 107.152 124.336 107.152C115.291 107.152 108.123 110.992 102.832 118.672C97.5413 126.181 94.896 136.421 94.896 149.392C94.896 162.192 97.5413 172.432 102.832 180.112C108.293 187.792 115.461 191.632 124.336 191.632Z" />
    <style>
        path { fill: #000; }
        @media (prefers-color-scheme: dark) {
            path { fill: #FFF; }
        }
    </style>
</svg>
